<?xml version="1.0" standalone="no"?>
<!DOCTYPE svg PUBLIC "-//W3C//DTD SVG 20010904//EN"
 "http://www.w3.org/TR/2001/REC-SVG-20010904/DTD/svg10.dtd">
<svg version="1.0" xmlns="http://www.w3.org/2000/svg"
 width="700.000000pt" height="700.000000pt" viewBox="0 0 700.000000 700.000000"
 preserveAspectRatio="xMidYMid meet">

<g transform="translate(0.000000,700.000000) scale(0.100000,-0.100000)"
fill="#000000" stroke="none">
<path d="M3331 6744 c-128 -34 -298 -154 -421 -296 -199 -229 -484 -658 -862
-1293 -228 -385 -238 -404 -238 -467 0 -82 26 -217 60 -310 17 -45 27 -85 23
-89 -5 -3 -30 -12 -57 -18 -259 -63 -488 -304 -673 -707 -164 -358 -262 -722
-323 -1206 -39 -311 -39 -307 -13 -328 12 -10 98 -43 190 -73 917 -305 2168
-394 3459 -247 505 58 985 143 1519 271 112 27 175 47 186 59 14 16 13 39 -13
251 -58 482 -135 802 -274 1142 -203 496 -442 766 -746 842 l-65 17 24 59 c42
103 63 208 65 309 l1 95 -120 205 c-471 804 -806 1309 -1011 1522 -141 147
-263 229 -392 263 -70 19 -248 18 -319 -1z m414 -1724 c213 -14 543 -62 658
-96 24 -7 22 -53 -7 -194 -28 -136 -70 -255 -129 -365 l-43 -80 -54 -7 c-157
-20 -167 -21 -218 -4 -28 10 -69 31 -92 47 -52 38 -94 37 -98 -3 -3 -21 6 -33
43 -62 90 -68 211 -97 306 -73 92 25 165 2 231 -72 20 -23 41 -41 47 -41 5 0
27 16 48 36 54 52 104 74 163 74 62 0 104 -17 155 -61 73 -65 96 -176 55 -267
-10 -23 -17 -49 -14 -57 3 -8 26 -26 50 -40 116 -68 161 -214 102 -330 -49
-96 -178 -185 -266 -185 -41 1 -103 33 -140 74 -18 20 -39 36 -46 36 -8 0 -38
-12 -67 -27 -70 -37 -182 -39 -244 -6 -127 68 -181 221 -121 349 13 28 29 55
35 58 25 16 10 47 -40 83 -60 43 -99 114 -99 179 0 36 -6 47 -37 74 -83 73
-251 124 -282 86 -24 -28 0 -62 47 -69 45 -6 147 -49 174 -74 35 -32 23 -58
-39 -86 -32 -14 -84 -34 -116 -44 -33 -10 -63 -26 -68 -35 -12 -23 5 -58 30
-58 28 0 122 30 173 56 57 29 65 29 73 5 3 -11 24 -38 46 -61 l40 -41 -20 -55
c-12 -30 -21 -66 -21 -79 0 -29 -8 -32 -211 -59 l-37 -4 -4 90 c-4 84 -6 93
-32 114 -17 15 -40 24 -62 24 l-34 0 0 130 c0 126 -1 132 -25 155 -22 23 -32
25 -119 25 -144 0 -166 -18 -166 -135 0 -39 -4 -65 -11 -65 -6 0 -44 16 -86
35 -289 133 -504 438 -583 826 -11 53 -20 115 -20 137 l0 40 53 12 c128 28
403 69 527 80 271 22 386 24 595 10z m-1240 -275 c51 -318 233 -633 465 -805
68 -51 195 -118 263 -140 46 -14 48 -30 3 -30 -19 0 -45 -9 -60 -21 -24 -19
-26 -26 -26 -105 0 -46 -4 -84 -9 -84 -20 0 -229 42 -306 61 -103 26 -175 58
-304 130 -357 202 -611 557 -629 875 l-5 91 204 66 c112 37 242 77 289 91 l85
24 7 -27 c3 -14 14 -71 23 -126z m2395 34 c85 -28 164 -56 174 -61 17 -9 18
-18 13 -92 -11 -147 -61 -286 -156 -434 l-53 -82 -40 45 c-48 54 -135 101
-205 111 -62 8 -144 -14 -199 -54 l-39 -28 -46 33 -47 34 49 97 c62 121 113
279 135 419 9 59 18 113 20 120 3 13 163 -30 394 -108z m-1280 -1259 l0 -170
-195 0 -195 0 0 170 0 170 195 0 195 0 0 -170z m-470 -161 c0 -5 -11 -9 -25
-9 -38 0 -92 -25 -104 -48 -6 -12 -11 -45 -11 -76 0 -58 1 -57 -66 -71 -39 -8
-224 -160 -224 -185 0 -9 6 -22 13 -28 9 -8 136 -12 384 -14 l371 -3 26 -24
c36 -34 36 -92 0 -120 -26 -20 -38 -21 -350 -21 -280 0 -325 -2 -338 -16 -19
-19 -20 -38 -3 -52 8 -7 126 -12 339 -14 l326 -3 26 -24 c33 -31 35 -85 4
-118 l-21 -23 -328 0 c-284 0 -330 -2 -343 -16 -20 -20 -20 -33 1 -56 15 -17
39 -18 341 -18 321 0 326 0 349 -22 30 -28 31 -83 1 -115 l-21 -23 -322 0
c-274 0 -324 -2 -343 -16 -26 -18 -28 -37 -6 -58 13 -14 57 -16 327 -16 305 0
311 0 334 -22 32 -30 31 -77 -3 -109 l-26 -24 -431 -3 c-490 -4 -719 7 -818
37 -135 42 -254 150 -300 271 -45 119 -33 264 29 355 51 74 363 326 617 497
l240 163 170 20 c171 21 185 22 185 4z m610 -674 l0 -575 -85 0 c-70 0 -85 3
-85 15 0 9 -7 30 -16 47 -15 28 -14 31 5 52 55 59 63 159 17 213 l-23 27 23
34 c43 63 41 155 -5 196 -19 17 -19 18 4 52 47 70 44 141 -8 201 -51 59 -73
63 -297 63 l-200 0 0 125 0 125 335 0 335 0 0 -575z m-750 360 l0 -35 -66 0
-66 0 42 35 c23 19 53 35 66 35 21 0 24 -5 24 -35z"/>
<path d="M4467 3994 c-3 -4 4 -15 18 -25 50 -40 54 -121 8 -171 -15 -17 -14
-18 19 -18 94 0 132 131 57 194 -29 25 -86 35 -102 20z"/>
<path d="M4578 3630 c-50 -88 -172 -93 -241 -10 -14 16 -28 30 -31 30 -14 0
-4 -68 14 -98 55 -90 194 -99 259 -16 24 31 37 86 24 108 -7 12 -11 10 -25
-14z"/>
</g>
</svg>
