<?xml version="1.0" standalone="no"?>
<!DOCTYPE svg PUBLIC "-//W3C//DTD SVG 20010904//EN"
 "http://www.w3.org/TR/2001/REC-SVG-20010904/DTD/svg10.dtd">
<svg version="1.0" xmlns="http://www.w3.org/2000/svg"
 width="700.000000pt" height="700.000000pt" viewBox="0 0 700.000000 700.000000"
 preserveAspectRatio="xMidYMid meet">

<g transform="translate(0.000000,700.000000) scale(0.100000,-0.100000)"
fill="#000000" stroke="none">
<path d="M3430 6864 c-471 -87 -764 -279 -890 -583 -104 -254 -116 -704 -29
-1151 26 -137 88 -378 105 -411 16 -32 54 -58 97 -66 58 -11 57 -6 57 -253 l0
-227 50 -82 c101 -169 231 -301 360 -364 l65 -32 295 0 295 0 65 32 c127 63
263 202 367 375 l43 72 0 227 c0 169 3 229 13 236 6 6 29 13 49 17 64 12 91
50 128 183 84 302 124 580 124 868 0 402 -65 625 -238 811 -180 196 -518 340
-816 349 -63 2 -126 2 -140 -1z m-229 -996 c22 -6 57 -27 79 -46 60 -50 83
-102 88 -197 4 -68 1 -88 -18 -128 -38 -80 -122 -134 -257 -162 -204 -43 -325
15 -354 170 -14 73 -6 192 14 231 8 16 26 39 39 51 26 25 122 70 177 82 54 13
188 13 232 -1z m922 -4 c80 -21 149 -56 180 -93 34 -41 51 -118 44 -206 -15
-203 -133 -278 -360 -230 -192 40 -279 126 -279 275 0 118 66 221 163 256 49
18 181 17 252 -2z m-522 -493 c62 -40 126 -107 157 -166 23 -44 26 -62 27
-145 0 -105 -14 -144 -68 -184 -25 -19 -45 -21 -170 -24 -135 -3 -144 -2 -176
20 -60 40 -76 79 -76 188 0 111 19 159 92 235 48 50 128 105 153 105 9 0 36
-13 61 -29z m-614 -543 c36 -40 43 -65 43 -145 0 -98 13 -121 73 -125 l42 -3
3 -62 c2 -35 -1 -63 -5 -63 -4 0 -22 8 -39 19 -61 37 -121 164 -143 302 -18
106 -13 120 26 77z m1138 -35 c-14 -120 -44 -210 -98 -290 -24 -36 -70 -73
-92 -73 -3 0 -5 28 -3 63 l3 62 42 3 c60 4 73 27 73 125 0 80 7 105 43 145 33
35 40 27 32 -35z m-767 -253 c21 0 22 -3 22 -90 0 -56 -4 -90 -10 -90 -6 0
-40 7 -75 16 l-65 16 0 81 0 80 53 -7 c28 -3 62 -6 75 -6z m490 -67 l-3 -78
-36 -12 c-20 -6 -53 -15 -73 -18 l-36 -7 0 90 0 91 38 4 c20 2 54 4 75 5 l38
2 -3 -77z m-238 -33 l0 -89 -35 -7 c-19 -3 -51 -3 -70 0 l-35 7 0 89 0 90 70
0 70 0 0 -90z"/>
<path d="M1637 5539 c-123 -30 -207 -127 -207 -238 l0 -46 19 41 c65 142 226
205 359 138 59 -29 96 -69 128 -137 18 -40 23 -45 28 -29 9 26 -11 109 -34
147 -59 95 -189 150 -293 124z"/>
<path d="M5247 5539 c-61 -15 -113 -46 -151 -91 -41 -47 -71 -135 -61 -175 6
-25 7 -24 29 23 32 69 69 109 128 138 133 67 294 4 359 -138 l19 -41 0 46 c0
151 -169 276 -323 238z"/>
<path d="M1360 5149 c-114 -22 -222 -108 -274 -219 -28 -59 -31 -74 -31 -165
0 -88 3 -107 27 -157 30 -65 101 -146 152 -173 27 -15 35 -26 40 -58 7 -43 61
-107 90 -107 15 0 15 3 1 30 -8 16 -15 47 -15 69 0 52 44 104 103 124 l42 14
-34 17 c-40 21 -88 17 -129 -13 -32 -23 -47 -18 -105 38 -190 179 -76 500 184
519 67 5 153 -11 165 -29 3 -5 -2 -17 -11 -26 -18 -18 -35 -56 -35 -79 0 -10
10 -7 40 12 72 48 145 31 197 -46 l23 -32 9 25 c11 28 1 75 -23 112 -14 22
-13 23 27 41 30 14 64 19 127 19 93 0 137 -17 204 -76 66 -58 109 -184 92
-273 -7 -35 -8 -36 -53 -36 -56 0 -125 -31 -148 -67 -17 -26 -17 -26 6 -19
153 47 259 -18 294 -177 8 -37 20 -27 34 28 14 58 1 112 -38 158 -21 25 -26
38 -20 57 15 52 9 179 -10 235 -39 111 -138 207 -247 241 -103 32 -254 12
-331 -44 l-27 -20 -60 33 c-57 31 -152 56 -200 54 -12 -1 -41 -5 -66 -10z"/>
<path d="M4992 5145 c-117 -26 -217 -105 -268 -213 -21 -44 -29 -76 -32 -142
-2 -47 0 -102 6 -122 9 -32 7 -39 -10 -55 -50 -45 -67 -139 -36 -198 l16 -30
7 30 c22 102 66 161 140 185 36 12 104 9 154 -6 23 -7 23 -7 6 19 -23 36 -92
67 -148 67 -45 0 -46 1 -53 36 -17 89 26 215 92 273 67 59 111 76 204 76 63 0
97 -5 128 -19 l42 -19 -20 -32 c-21 -34 -27 -109 -10 -120 6 -3 14 4 19 17 32
83 140 106 216 46 l28 -22 -6 33 c-4 18 -16 46 -28 62 l-20 29 28 12 c15 6 63
13 105 16 66 3 84 1 130 -20 75 -34 122 -79 155 -146 24 -48 28 -69 28 -137 0
-67 -5 -88 -27 -130 -26 -49 -84 -113 -122 -133 -15 -8 -26 -5 -49 12 -34 25
-114 29 -141 7 -16 -13 -13 -16 33 -33 82 -31 115 -113 75 -189 -15 -30 -15
-31 8 -24 36 10 77 61 84 103 5 31 13 42 40 57 51 27 122 108 152 173 24 50
27 69 27 157 0 91 -3 106 -31 165 -98 207 -339 285 -540 176 -60 -33 -61 -34
-85 -15 -68 53 -197 76 -297 54z"/>
<path d="M1572 4253 c-62 -81 -123 -177 -120 -192 2 -9 58 -54 125 -101 67
-48 125 -89 129 -93 4 -3 -8 -28 -25 -55 -52 -82 -43 -110 62 -182 64 -44 65
-46 64 -88 -2 -35 3 -48 23 -65 14 -12 240 -172 503 -355 262 -183 478 -336
481 -340 2 -4 -177 -133 -398 -288 -262 -183 -409 -292 -424 -315 -19 -27 -23
-44 -20 -84 4 -46 18 -70 171 -291 100 -143 179 -247 196 -257 17 -10 50 -17
78 -17 44 0 59 6 124 52 41 28 280 197 531 375 251 178 459 323 461 323 3 0
247 -169 542 -375 l537 -375 54 0 c50 0 58 4 94 38 37 35 303 411 335 472 22
43 19 101 -8 141 -15 22 -161 131 -425 314 -221 154 -401 282 -401 285 0 3 52
41 116 85 294 201 860 599 877 615 14 13 19 32 19 63 -1 42 2 47 45 78 115 79
127 114 71 196 -18 25 -27 48 -22 52 79 53 213 149 231 164 12 11 22 27 22 35
0 25 -134 212 -157 218 -17 5 -50 -13 -140 -77 -65 -45 -123 -86 -129 -90 -7
-6 -23 9 -45 41 -37 55 -75 75 -114 60 -13 -5 -52 -30 -86 -54 -58 -42 -64
-45 -80 -30 -48 43 -86 19 -1176 -750 l-152 -107 -153 107 c-84 59 -301 211
-483 338 -181 126 -393 274 -470 328 -148 103 -187 118 -226 82 -15 -14 -24
-10 -99 41 -67 46 -88 55 -109 50 -32 -8 -55 -28 -82 -72 -11 -18 -25 -33 -31
-33 -5 0 -64 38 -131 85 -66 47 -129 85 -138 85 -10 0 -30 -17 -47 -37z m530
-173 l37 -27 -140 -202 -141 -201 -59 41 c-32 23 -59 47 -59 53 0 6 18 34 39
63 22 29 79 110 127 180 47 70 91 134 97 141 11 13 20 9 99 -48z m3056 -78
c51 -75 113 -165 138 -199 l45 -62 -62 -45 c-35 -26 -66 -43 -69 -38 -17 19
-262 375 -266 387 -4 11 100 96 116 95 3 -1 47 -63 98 -138z m-2315 -337 c158
-110 287 -204 287 -210 -1 -5 -7 -19 -15 -29 -14 -19 -17 -18 -82 26 l-68 46
-95 -10 -95 -11 -110 77 c-60 42 -114 76 -120 76 -19 0 -41 -23 -94 -102 -31
-45 -51 -85 -49 -97 2 -12 46 -50 113 -98 108 -77 109 -79 123 -133 32 -132
29 -126 98 -175 62 -45 65 -48 51 -68 -8 -12 -21 -22 -29 -21 -18 1 -594 404
-591 414 1 4 84 125 184 269 121 174 185 258 193 253 7 -4 141 -97 299 -207z
m1891 -54 c98 -140 178 -257 179 -261 3 -10 -573 -412 -591 -414 -8 0 -21 9
-29 21 -14 21 -13 24 33 55 84 59 84 59 107 153 l23 90 109 78 c66 47 111 86
113 98 2 11 -17 50 -44 89 -57 84 -80 110 -98 110 -7 0 -62 -34 -122 -76
l-109 -77 -95 11 -95 11 -68 -46 c-65 -45 -68 -46 -82 -27 -8 10 -14 24 -15
29 0 6 39 37 87 70 48 33 181 126 297 207 116 81 214 144 217 140 4 -4 86
-121 183 -261z m-1885 -211 l93 12 54 -37 c35 -23 52 -40 47 -48 -5 -9 -176
-257 -190 -276 -1 -2 -26 13 -56 33 l-53 37 -23 93 -22 94 -100 68 c-54 37
-99 69 -99 71 0 2 12 21 26 43 l26 39 102 -70 102 -70 93 11z m1210 -252 c94
-136 174 -254 177 -261 3 -9 -7 -23 -24 -36 l-30 -21 -278 195 c-154 108 -280
199 -281 203 -4 11 250 183 257 175 4 -5 84 -119 179 -255z m-597 -77 c110
-70 118 -237 16 -314 -86 -66 -194 -54 -266 27 -111 127 -23 316 149 316 44 0
64 -6 101 -29z m-229 -578 c122 -85 223 -156 225 -158 7 -6 -1016 -720 -1038
-723 -14 -2 -33 3 -42 10 -32 25 -328 462 -328 485 0 29 7 35 460 351 l385
269 58 -39 c32 -22 158 -110 280 -195z"/>
</g>
</svg>
