<?xml version="1.0" encoding="UTF-8"?>
<svg width="700pt" height="700pt" version="1.1" viewBox="0 0 700 700" xmlns="http://www.w3.org/2000/svg" xmlns:xlink="http://www.w3.org/1999/xlink">
 <defs>
  <symbol id="k" overflow="visible">
   <path d="m29.312-1.75c-1.5117 0.78125-3.0898 1.3711-4.7344 1.7656-1.6367 0.40625-3.3398 0.60938-5.1094 0.60938-5.3125 0-9.5273-1.4844-12.641-4.4531-3.1055-2.9688-4.6562-7-4.6562-12.094s1.5508-9.125 4.6562-12.094c3.1133-2.9688 7.3281-4.4531 12.641-4.4531 1.7695 0 3.4727 0.19922 5.1094 0.59375 1.6445 0.39844 3.2227 0.99219 4.7344 1.7812v6.5938c-1.5312-1.0391-3.0391-1.8008-4.5156-2.2812-1.4805-0.48828-3.0391-0.73438-4.6719-0.73438-2.9375 0-5.2461 0.94531-6.9219 2.8281-1.6797 1.875-2.5156 4.4648-2.5156 7.7656 0 3.293 0.83594 5.8828 2.5156 7.7656 1.6758 1.875 3.9844 2.8125 6.9219 2.8125 1.6328 0 3.1914-0.23828 4.6719-0.71875 1.4766-0.48828 2.9844-1.2539 4.5156-2.2969z"/>
  </symbol>
  <symbol id="h" overflow="visible">
   <path d="m21.453-17.406c-0.67969-0.3125-1.3516-0.53906-2.0156-0.6875-0.65625-0.15625-1.3203-0.23438-1.9844-0.23438-1.9688 0-3.4844 0.63281-4.5469 1.8906-1.0547 1.2617-1.5781 3.0703-1.5781 5.4219v11.016h-7.6562v-23.922h7.6562v3.9219c0.97656-1.5625 2.1016-2.7031 3.375-3.4219 1.2812-0.71875 2.8125-1.0781 4.5938-1.0781 0.25 0 0.52344 0.011719 0.82812 0.03125 0.30078 0.023438 0.73438 0.070312 1.2969 0.14062z"/>
  </symbol>
  <symbol id="c" overflow="visible">
   <path d="m27.562-12.031v2.1875h-17.891c0.1875 1.793 0.83203 3.1367 1.9375 4.0312 1.1133 0.89844 2.6719 1.3438 4.6719 1.3438 1.6016 0 3.25-0.23438 4.9375-0.70312 1.6875-0.47656 3.4219-1.2031 5.2031-2.1719v5.8906c-1.8047 0.6875-3.6094 1.2031-5.4219 1.5469-1.8125 0.35156-3.6211 0.53125-5.4219 0.53125-4.3359 0-7.7031-1.0977-10.109-3.2969-2.3984-2.207-3.5938-5.2969-3.5938-9.2656 0-3.9062 1.1758-6.9727 3.5312-9.2031 2.3633-2.2383 5.6094-3.3594 9.7344-3.3594 3.7578 0 6.7695 1.1367 9.0312 3.4062 2.2578 2.2617 3.3906 5.2812 3.3906 9.0625zm-7.8594-2.5312c0-1.457-0.42969-2.6289-1.2812-3.5156-0.84375-0.89453-1.9492-1.3438-3.3125-1.3438-1.4922 0-2.6992 0.41797-3.625 1.25-0.91797 0.83594-1.4922 2.0391-1.7188 3.6094z"/>
  </symbol>
  <symbol id="b" overflow="visible">
   <path d="m14.391-10.766c-1.5938 0-2.793 0.27344-3.5938 0.8125-0.80469 0.54297-1.2031 1.3398-1.2031 2.3906 0 0.96875 0.32031 1.7305 0.96875 2.2812 0.64453 0.54297 1.5469 0.8125 2.7031 0.8125 1.4375 0 2.6445-0.51562 3.625-1.5469 0.98828-1.0312 1.4844-2.3203 1.4844-3.875v-0.875zm11.688-2.8906v13.656h-7.7031v-3.5469c-1.0312 1.4492-2.1875 2.5078-3.4688 3.1719s-2.8398 1-4.6719 1c-2.4805 0-4.4961-0.72266-6.0469-2.1719-1.543-1.4453-2.3125-3.3203-2.3125-5.625 0-2.8125 0.96094-4.8672 2.8906-6.1719 1.9375-1.3125 4.9688-1.9688 9.0938-1.9688h4.5156v-0.60938c0-1.207-0.48047-2.0938-1.4375-2.6562-0.94922-0.5625-2.4375-0.84375-4.4688-0.84375-1.6367 0-3.1562 0.16797-4.5625 0.5-1.4062 0.32422-2.7188 0.8125-3.9375 1.4688v-5.8281c1.6445-0.40625 3.2891-0.70703 4.9375-0.90625 1.6562-0.20703 3.3047-0.3125 4.9531-0.3125 4.3203 0 7.4375 0.85547 9.3438 2.5625 1.9141 1.6992 2.875 4.4609 2.875 8.2812z"/>
  </symbol>
  <symbol id="g" overflow="visible">
   <path d="m12.031-30.719v6.7969h7.875v5.4688h-7.875v10.141c0 1.1172 0.21875 1.8711 0.65625 2.2656 0.4375 0.38672 1.3125 0.57812 2.625 0.57812h3.9375v5.4688h-6.5625c-3.0234 0-5.1641-0.62891-6.4219-1.8906-1.2617-1.2578-1.8906-3.3984-1.8906-6.4219v-10.141h-3.7969v-5.4688h3.7969v-6.7969z"/>
  </symbol>
  <symbol id="e" overflow="visible">
   <path d="m19.953-20.422v-12.812h7.6875v33.234h-7.6875v-3.4531c-1.0547 1.4062-2.2148 2.4375-3.4844 3.0938-1.2734 0.65625-2.7422 0.98438-4.4062 0.98438-2.9492 0-5.3711-1.1719-7.2656-3.5156-1.8867-2.3438-2.8281-5.3594-2.8281-9.0469s0.94141-6.7031 2.8281-9.0469c1.8945-2.3438 4.3164-3.5156 7.2656-3.5156 1.6562 0 3.1172 0.33594 4.3906 1 1.2812 0.65625 2.4453 1.6836 3.5 3.0781zm-5.0469 15.484c1.6445 0 2.8945-0.59766 3.75-1.7969 0.86328-1.1953 1.2969-2.9297 1.2969-5.2031 0-2.2812-0.43359-4.0195-1.2969-5.2188-0.85547-1.1953-2.1055-1.7969-3.75-1.7969-1.625 0-2.8711 0.60156-3.7344 1.7969-0.85547 1.1992-1.2812 2.9375-1.2812 5.2188 0 2.2734 0.42578 4.0078 1.2812 5.2031 0.86328 1.1992 2.1094 1.7969 3.7344 1.7969z"/>
  </symbol>
  <symbol id="d" overflow="visible">
   <path d="m16.406-4.9375c1.6328 0 2.8828-0.59766 3.75-1.7969 0.86328-1.1953 1.2969-2.9297 1.2969-5.2031 0-2.2812-0.43359-4.0195-1.2969-5.2188-0.86719-1.1953-2.1172-1.7969-3.75-1.7969-1.6367 0-2.8906 0.60547-3.7656 1.8125-0.875 1.1992-1.3125 2.9336-1.3125 5.2031 0 2.2617 0.4375 3.9961 1.3125 5.2031 0.875 1.1992 2.1289 1.7969 3.7656 1.7969zm-5.0781-15.484c1.0508-1.3945 2.2188-2.4219 3.5-3.0781 1.2812-0.66406 2.7539-1 4.4219-1 2.9453 0 5.3672 1.1719 7.2656 3.5156 1.8945 2.3438 2.8438 5.3594 2.8438 9.0469s-0.94922 6.7031-2.8438 9.0469c-1.8984 2.3438-4.3203 3.5156-7.2656 3.5156-1.668 0-3.1406-0.33594-4.4219-1s-2.4492-1.6914-3.5-3.0781v3.4531h-7.6562v-33.234h7.6562z"/>
  </symbol>
  <symbol id="f" overflow="visible">
   <path d="m0.53125-23.922h7.6562l6.4219 16.234 5.4688-16.234h7.6562l-10.062 26.188c-1.0117 2.6641-2.1953 4.5234-3.5469 5.5781-1.3438 1.0625-3.1211 1.5938-5.3281 1.5938h-4.4219v-5.0156h2.3906c1.3008 0 2.2422-0.21094 2.8281-0.625 0.59375-0.40625 1.0547-1.1484 1.3906-2.2188l0.20312-0.65625z"/>
  </symbol>
  <symbol id="a" overflow="visible">
   <path d="m25.844-19.953c0.96875-1.4766 2.1172-2.6016 3.4531-3.375 1.332-0.78125 2.7969-1.1719 4.3906-1.1719 2.75 0 4.8438 0.85156 6.2812 2.5469 1.4375 1.6875 2.1562 4.1523 2.1562 7.3906v14.562h-7.6875v-12.469c0.007812-0.1875 0.019531-0.37891 0.03125-0.57812 0.007812-0.19531 0.015625-0.48438 0.015625-0.85938 0-1.6953-0.25-2.9258-0.75-3.6875-0.5-0.75781-1.3086-1.1406-2.4219-1.1406-1.4492 0-2.5703 0.60156-3.3594 1.7969-0.79297 1.1992-1.2031 2.9297-1.2344 5.1875v11.75h-7.6875v-12.469c0-2.6562-0.23047-4.3633-0.6875-5.125-0.44922-0.75781-1.2578-1.1406-2.4219-1.1406-1.4688 0-2.6055 0.60547-3.4062 1.8125-0.79297 1.1992-1.1875 2.918-1.1875 5.1562v11.766h-7.7031v-23.922h7.7031v3.5c0.9375-1.3516 2.0156-2.3672 3.2344-3.0469 1.2188-0.6875 2.5547-1.0312 4.0156-1.0312 1.6562 0 3.1133 0.40234 4.375 1.2031 1.2695 0.79297 2.2344 1.9062 2.8906 3.3438z"/>
  </symbol>
  <symbol id="j" overflow="visible">
   <path d="m3.4219-9.3125v-14.609h7.6875v2.3906c0 1.293-0.011719 2.918-0.03125 4.875-0.011719 1.9609-0.015625 3.2656-0.015625 3.9219 0 1.9297 0.046875 3.3125 0.14062 4.1562 0.10156 0.84375 0.28125 1.4609 0.53125 1.8438 0.3125 0.5 0.71875 0.88672 1.2188 1.1562 0.50781 0.27344 1.0938 0.40625 1.75 0.40625 1.5938 0 2.8438-0.60938 3.75-1.8281 0.91406-1.2266 1.375-2.9297 1.375-5.1094v-11.812h7.6406v23.922h-7.6406v-3.4531c-1.1562 1.3867-2.3828 2.4141-3.6719 3.0781-1.2812 0.66406-2.6992 1-4.25 1-2.7734 0-4.8828-0.84766-6.3281-2.5469-1.4375-1.6953-2.1562-4.1602-2.1562-7.3906z"/>
  </symbol>
  <symbol id="i" overflow="visible">
   <path d="m27.734-14.562v14.562h-7.7031v-11.109c0-2.0938-0.046875-3.5312-0.14062-4.3125-0.085937-0.78125-0.24219-1.3594-0.46875-1.7344-0.30469-0.5-0.71094-0.88281-1.2188-1.1562-0.51172-0.28125-1.0938-0.42188-1.75-0.42188-1.5938 0-2.8516 0.61719-3.7656 1.8438-0.90625 1.2305-1.3594 2.9375-1.3594 5.125v11.766h-7.6562v-33.234h7.6562v12.812c1.1445-1.3945 2.3633-2.4219 3.6562-3.0781 1.3008-0.66406 2.7383-1 4.3125-1 2.7578 0 4.8516 0.85156 6.2812 2.5469 1.4375 1.6875 2.1562 4.1523 2.1562 7.3906z"/>
  </symbol>
 </defs>
 <g>
  <path d="m410.28 289.11h-12.301v-30.113c0-1-0.8125-1.8125-1.8125-1.8125h-0.72656v-37.367c0-1-0.8125-1.8125-1.8125-1.8125h-34.875c-1.0039 0-1.8125 0.8125-1.8125 1.8125v37.367h-7.2109c-1 0-1.8125 0.8125-1.8125 1.8125v30.113h-49.305c-7.2227 0-13.098 5.875-13.098 13.098v15.926h-7.0703c-1 0-1.8125 0.8125-1.8125 1.8125v34.004c0 1.0039 0.8125 1.8125 1.8125 1.8125h7.0703v10.355h-7.0703c-1 0-1.8125 0.8125-1.8125 1.8125v34.004c0 1 0.8125 1.8125 1.8125 1.8125h7.0703v88.484c0 7.2227 5.875 13.098 13.098 13.098h111.67c7.2227 0 13.098-5.875 13.098-13.098v-190.02c0-7.2227-5.875-13.098-13.098-13.098zm-49.711-67.48h31.246v35.555h-31.246zm-9.0273 39.184h42.812v28.297h-42.809zm-71.285 91.324v-30.375h5.2578v30.375zm0 47.988v-30.375h5.2578v30.375zm139.49 92.113c0 5.2227-4.2461 9.4688-9.4688 9.4688h-111.67c-5.2227 0-9.4688-4.2461-9.4688-9.4688v-190.04c0-5.2227 4.2461-9.4688 9.4688-9.4688h111.67c5.2227 0 9.4688 4.2461 9.4688 9.4688z"/>
  <path d="m301.11 323.58c-1 0-1.8125 0.8125-1.8125 1.8125v71.832c0 1 0.8125 1.8125 1.8125 1.8125s1.8125-0.8125 1.8125-1.8125v-71.832c0-1-0.8125-1.8125-1.8125-1.8125z"/>
  <path d="m301.11 428.43c-1 0-1.8125 0.8125-1.8125 1.8125v44.625c0 1 0.8125 1.8125 1.8125 1.8125s1.8125-0.8125 1.8125-1.8125v-44.625c0-1-0.8125-1.8125-1.8125-1.8125z"/>
  <path d="m385.64 225.99c-1 0-1.8125 0.8125-1.8125 1.8125v16.688c0 1 0.8125 1.8125 1.8125 1.8125s1.8125-0.8125 1.8125-1.8125v-16.688c0-1-0.8125-1.8125-1.8125-1.8125z"/>
  <path d="m381 362.93-24.82 5.7109 4.3711-37.109c0.10156-0.86328-0.42188-1.6758-1.25-1.9414-0.82422-0.26172-1.7266 0.097656-2.1445 0.85937l-32 58.531c-0.33203 0.60938-0.28906 1.3516 0.10938 1.918 0.40234 0.56641 1.0859 0.85156 1.7734 0.74219l27.066-4.4297-22.316 69.809c-0.28906 0.89844 0.16406 1.8672 1.0352 2.2266 0.22656 0.09375 0.46094 0.13672 0.69531 0.13672 0.66016 0 1.293-0.36328 1.6133-0.98438l47.891-92.875c0.32422-0.62891 0.25391-1.3867-0.17969-1.9453-0.4375-0.55078-1.1562-0.80469-1.8438-0.64844zm-39.141 74.512 16.605-51.941c0.19141-0.60156 0.058594-1.2578-0.35547-1.7383-0.34766-0.40234-0.85156-0.62891-1.375-0.62891-0.097656 0-0.19531 0.007813-0.29297 0.023438l-26.324 4.3086 25.73-47.062-3.5781 30.375c-0.070313 0.58594 0.15234 1.168 0.58984 1.5625 0.4375 0.39453 1.043 0.54687 1.6172 0.41797l23.52-5.4102z"/>
  <path d="m306.48 133.3c1.7656 0.44141 4.0234 0.86719 6.6367 1.3594 7.8984 1.4883 21.113 3.9766 23.246 8.6406 0.49219 1.0781 0.31641 2.3125-0.53516 3.7734-2.3828 4.0859-2.8477 8.1758-1.3828 12.16 3.3906 9.2188 16.309 14.957 23.711 17.555 15.148 5.3203 16.215 28.598 16.227 28.832 0.03125 0.85156 0.65625 1.5664 1.4961 1.7188 0.10547 0.019531 0.21484 0.027344 0.32031 0.027344 0.72266 0 1.3945-0.43359 1.6758-1.125 6.0508-14.719 15.309-20.227 23.477-25.09 6.0078-3.5781 11.199-6.6641 13.605-12.656 4.5781-11.395-1.9219-21.156-4.7578-24.66 2.082-2.1914 3.3477-4.6523 3.9102-7.0469 3.7266-15.859-4.0977-29.586-7.0938-34.086 4.6719-3.7031 7.2656-9.6992 7.1367-17.227-0.24219-14.086-10.383-29.844-26.348-30.73-14.828-0.82422-20.941 4.1836-26.852 9.0234-4.7031 3.8516-9.1445 7.4922-18.316 7.9062-7.0469 0.32031-12.461 2.6328-16.09 6.8711-4.3203 5.0469-4.8359 11.379-4.8164 14.297-15.887 4.2852-22.305 15.344-22.875 25.07-0.45312 7.6992 2.7539 14.168 7.625 15.387zm-4.0039-15.172c0.85547-14.566 14.219-21.434 26.441-23.004 8.2461-1.0625 13.98 0.41797 17.043 4.3945 6.6641 8.6523-0.5 26.562-0.57422 26.742-0.37891 0.92578 0.070313 1.9844 0.99609 2.3633 0.92969 0.37891 1.9844-0.066406 2.3633-0.99609 0.33203-0.8125 8.0195-20.016 0.089843-30.316-3.9062-5.0742-10.762-7.0234-20.383-5.7852-1.0625 0.13672-2.082 0.30469-3.0781 0.49219 0.09375-2.6602 0.75-7.418 3.9453-11.133 2.9492-3.4297 7.4844-5.3086 13.477-5.582 10.375-0.47266 15.496-4.668 20.449-8.7266 5.6211-4.6055 10.926-8.957 24.352-8.207 10.809 0.60156 22.645 11.16 22.918 27.168 0.17578 10.176-5.2539 16.75-14.516 17.586-7.3359 0.66016-12.117-0.58203-14.207-3.6953-3.4961-5.207 1.1797-14.367 1.2266-14.461 0.46094-0.88672 0.11719-1.9844-0.76953-2.4453-0.89062-0.46484-1.9844-0.11719-2.4453 0.76953-0.23438 0.45312-5.7148 11.152-1.0273 18.148 2.4414 3.6445 7.043 5.4805 13.715 5.4805 1.2109 0 2.4922-0.0625 3.8398-0.18359 2.8281-0.25391 5.3789-0.96875 7.6094-2.082 2.6289 3.9922 10.02 16.895 6.6367 31.305-0.60156 2.5547-1.9727 4.6172-3.8359 6.2461-0.10547 0.066407-0.20703 0.14453-0.30078 0.23438-0.015625 0.015625-0.027344 0.035156-0.042969 0.050782-4.1562 3.4219-10.543 4.8555-16.352 4.957-10.211 0.18359-22.184-3.8047-24.297-11.551-0.94141-3.457-0.59766-6.2422 1.0547-8.5117 4.0547-5.5742 14.586-6.125 14.691-6.1289 1-0.042968 1.7773-0.89062 1.7305-1.8945-0.042968-1-0.90625-1.7773-1.8945-1.7305-0.50391 0.023438-12.367 0.62891-17.457 7.6094-2.3164 3.1758-2.8633 7.082-1.625 11.609 2.5664 9.4141 15.445 14.23 27.113 14.23 0.25 0 0.49609-0.003906 0.74609-0.007812 7.7773-0.13672 13.441-2.0938 17.34-4.8711 2.4375 3.0312 7.9727 11.379 4.1328 20.934-1.9492 4.8516-6.4258 7.5156-12.094 10.891-7.1562 4.2578-15.836 9.4258-22.258 21.121-0.39062-2.1289-0.97266-4.6289-1.8398-7.2383-3.1836-9.5703-8.7305-15.988-16.035-18.555-11.734-4.125-19.375-9.5859-21.508-15.387-1.0898-2.9609-0.72266-5.9297 1.1133-9.0781 1.4688-2.5195 1.7031-4.9102 0.69922-7.1094-2.9102-6.375-15.645-8.7734-25.875-10.699-2.5586-0.48047-4.7695-0.89844-6.4297-1.3125-2.6914-0.66406-5.2578-5.207-4.8789-11.641z"/>
  <use x="70" y="691.25" xlink:href="#k"/>
  <use x="102.109375" y="691.25" xlink:href="#h"/>
  <use x="123.683594" y="691.25" xlink:href="#c"/>
  <use x="153.355469" y="691.25" xlink:href="#b"/>
  <use x="182.878906" y="691.25" xlink:href="#g"/>
  <use x="203.792969" y="691.25" xlink:href="#c"/>
  <use x="233.464844" y="691.25" xlink:href="#e"/>
  <use x="280.011719" y="691.25" xlink:href="#d"/>
  <use x="311.328125" y="691.25" xlink:href="#f"/>
  <use x="355.078125" y="691.25" xlink:href="#a"/>
  <use x="400.667969" y="691.25" xlink:href="#j"/>
  <use x="431.8125" y="691.25" xlink:href="#i"/>
  <use x="462.960938" y="691.25" xlink:href="#b"/>
  <use x="492.480469" y="691.25" xlink:href="#a"/>
  <use x="538.070312" y="691.25" xlink:href="#a"/>
  <use x="583.65625" y="691.25" xlink:href="#b"/>
  <use x="613.179687" y="691.25" xlink:href="#e"/>
  <use x="659.726562" y="691.25" xlink:href="#d"/>
  <use x="691.046875" y="691.25" xlink:href="#c"/>
 </g>
</svg>
