<?xml version="1.0" standalone="no"?>
<!DOCTYPE svg PUBLIC "-//W3C//DTD SVG 20010904//EN"
 "http://www.w3.org/TR/2001/REC-SVG-20010904/DTD/svg10.dtd">
<svg version="1.0" xmlns="http://www.w3.org/2000/svg"
 width="700.000000pt" height="700.000000pt" viewBox="0 0 700.000000 700.000000"
 preserveAspectRatio="xMidYMid meet">

<g transform="translate(0.000000,700.000000) scale(0.100000,-0.100000)"
fill="#000000" stroke="none">
<path d="M3285 6469 c-550 -56 -1045 -254 -1475 -588 -111 -86 -321 -291 -422
-411 -178 -211 -378 -556 -473 -813 -232 -631 -232 -1323 0 -1954 96 -260 297
-604 478 -818 100 -119 290 -305 402 -394 117 -94 312 -220 455 -295 291 -151
574 -240 926 -292 167 -25 561 -25 729 0 623 91 1140 341 1574 761 243 235
427 487 571 780 142 289 217 534 266 870 25 168 25 562 0 729 -65 444 -205
819 -434 1166 -113 172 -188 266 -332 414 -451 465 -984 735 -1640 831 -126
19 -499 27 -625 14z m591 -135 c1140 -147 2065 -1010 2288 -2134 39 -195 49
-309 49 -525 0 -279 -32 -499 -108 -757 -177 -597 -567 -1121 -1095 -1473
-250 -166 -612 -319 -897 -379 -376 -79 -753 -81 -1119 -6 -781 161 -1461 679
-1830 1395 -206 399 -298 778 -297 1230 0 436 91 816 289 1205 404 798 1207
1355 2089 1449 208 23 434 21 631 -5z"/>
<path d="M4213 5676 c-136 -33 -282 -151 -339 -273 -16 -35 -34 -63 -40 -63
-30 0 -137 -66 -178 -110 -189 -202 -135 -525 108 -651 61 -31 65 -32 88 -17
54 36 41 83 -35 126 -178 101 -205 332 -55 467 28 25 54 45 58 45 4 0 10 -21
14 -46 8 -63 37 -124 81 -173 76 -84 142 -102 163 -44 13 38 2 62 -48 102 -78
63 -100 165 -59 276 58 157 212 254 384 243 178 -12 326 -150 355 -334 24
-150 -54 -311 -187 -386 -88 -50 -93 -79 -26 -146 64 -65 87 -120 87 -207 -1
-83 -16 -123 -73 -188 -42 -49 -50 -81 -31 -118 7 -13 21 -19 44 -19 27 0 42
9 80 50 86 92 125 219 105 342 -10 64 -49 157 -74 178 -12 10 -4 23 53 79 214
210 217 517 8 727 -132 132 -307 182 -483 140z"/>
<path d="M2210 5010 c-11 -11 -20 -30 -20 -43 0 -30 726 -757 756 -757 29 0
52 21 60 54 6 26 -13 48 -362 397 -265 265 -376 369 -392 369 -12 0 -31 -9
-42 -20z"/>
<path d="M3885 4431 c-48 -29 -115 -108 -115 -135 0 -40 32 -63 80 -56 8 1 35
21 60 46 l45 44 233 -233 c127 -128 232 -236 232 -241 0 -5 -18 -28 -40 -52
-60 -66 -53 -134 15 -134 22 0 123 87 141 121 18 36 18 92 0 127 -22 41 -497
510 -529 522 -42 15 -88 12 -122 -9z"/>
<path d="M3642 4176 c-22 -12 -832 -816 -1301 -1291 -238 -241 -260 -273 -283
-405 -55 -321 249 -597 567 -515 124 33 121 31 878 785 395 393 732 732 749
753 32 40 45 97 34 144 -8 31 -471 504 -518 529 -33 17 -95 18 -126 0z m298
-340 c126 -127 230 -232 230 -235 0 -3 -127 -133 -282 -288 l-283 -283 -237
237 -238 238 282 282 c156 156 286 282 290 281 4 -2 111 -106 238 -232z m-660
-661 l235 -235 -178 -178 -178 -177 -234 240 -234 240 172 173 c94 94 174 172
177 172 3 0 111 -106 240 -235z m-441 -442 l231 -238 -178 -178 c-213 -214
-257 -242 -382 -242 -135 1 -250 75 -306 199 -24 51 -28 74 -28 142 0 131 21
164 237 377 99 97 183 177 188 177 4 0 111 -107 238 -237z"/>
<path d="M4302 2918 c-7 -7 -12 -26 -12 -43 0 -26 45 -75 368 -398 296 -296
372 -367 393 -367 31 0 45 14 55 53 6 27 -13 49 -362 398 -325 325 -372 369
-399 369 -17 0 -36 -5 -43 -12z"/>
</g>
</svg>
